<svg xmlns="http://www.w3.org/2000/svg" width="26.728" height="29.995" viewBox="0 0 26.728 29.995">
  <g id="_x39_7" transform="translate(-5.116 -2.502)">
    <path id="Path_5" data-name="Path 5" d="M7.649,2.5A2.528,2.528,0,0,0,5.118,5.033V27.149a3.785,3.785,0,0,1,5.068.012V5.033A2.53,2.53,0,0,0,7.649,2.5Z" transform="translate(-0.001)" fill="#8c98b2"/>
    <path id="Path_6" data-name="Path 6" d="M10.183,44.211a.051.051,0,0,1-.1.013,2.534,2.534,0,1,0-2.437,3.237H25.857a1.608,1.608,0,0,0,1.612-1.612V44.305H10.183Z" transform="translate(0 -14.964)" fill="#8c98b2"/>
    <path id="Path_7" data-name="Path 7" d="M35.635,28V8.158a1.611,1.611,0,0,0-1.611-1.611h-18.8V29.611h18.8A1.611,1.611,0,0,0,35.635,28ZM17.724,9.673a.625.625,0,0,1,.625-.625H25.43a.625.625,0,0,1,.625.625v6.666l-2.039-4.072a.651.651,0,0,0-1.161,0l-1.1,2.212-.856-1.33a.647.647,0,0,0-.545-.3.674.674,0,0,0-.551.3l-2.075,3.242ZM32.51,27.111H18.349a.625.625,0,1,1,0-1.25H32.51a.625.625,0,1,1,0,1.25Zm0-3.363H18.349a.625.625,0,1,1,0-1.25H32.51a.625.625,0,1,1,0,1.25Zm0-3.363H18.349a.625.625,0,1,1,0-1.25H32.51a.625.625,0,1,1,0,1.25Zm0-3.363H28.349a.625.625,0,1,1,0-1.25H32.51a.625.625,0,1,1,0,1.25Zm0-3.363H28.349a.625.625,0,0,1,0-1.25H32.51a.625.625,0,1,1,0,1.25Zm0-3.363H28.349a.625.625,0,0,1,0-1.25H32.51a.625.625,0,1,1,0,1.25Z" transform="translate(-3.791 -1.517)" fill="#8c98b2"/>
  </g>
</svg>
