<svg width="512" height="512" viewBox="0 0 512 512" fill="none" xmlns="http://www.w3.org/2000/svg">
<path d="M91.0775 59.14V353.12L0.997481 107.68C-1.87252 99.88 2.16748 91.23 9.98748 88.41L91.0775 59.14Z" fill="#8B98B7"/>
<path d="M511.007 107.68L421.077 352.71V59.2L502.017 88.41C509.837 91.23 513.867 99.88 511.007 107.68Z" fill="#8B98B7"/>
<path d="M376.08 0H136.08C127.8 0 121.08 6.72 121.08 15V497C121.08 505.28 127.8 512 136.08 512H376.08C384.36 512 391.08 505.28 391.08 497V15C391.08 6.72 384.36 0 376.08 0ZM286.08 422H196.08C187.8 422 181.08 415.28 181.08 407C181.08 398.72 187.8 392 196.08 392H286.08C294.36 392 301.08 398.72 301.08 407C301.08 415.28 294.36 422 286.08 422ZM316.08 362H196.08C187.8 362 181.08 355.28 181.08 347C181.08 338.72 187.8 332 196.08 332H316.08C324.36 332 331.08 338.72 331.08 347C331.08 355.28 324.36 362 316.08 362ZM316.08 302H226.08C217.8 302 211.08 295.28 211.08 287C211.08 278.72 217.8 272 226.08 272H316.08C324.36 272 331.08 278.72 331.08 287C331.08 295.28 324.36 302 316.08 302ZM331.08 197C331.08 205.28 324.36 212 316.08 212H196.08C187.8 212 181.08 205.28 181.08 197V107C181.08 98.72 187.8 92 196.08 92H316.08C324.36 92 331.08 98.72 331.08 107V197Z" fill="#8B98B7"/>
<path d="M211.08 122H301.08V182H211.08V122Z" fill="#8B98B7"/>
</svg>
