<svg xmlns="http://www.w3.org/2000/svg" width="23" height="25.812" viewBox="0 0 23 25.812">
  <g id="_x39_7" transform="translate(-5.116 -2.502)">
    <path id="Path_5" data-name="Path 5" d="M7.3,2.5A2.176,2.176,0,0,0,5.118,4.68V23.712a3.257,3.257,0,0,1,4.361.011V4.68A2.177,2.177,0,0,0,7.3,2.5Z" transform="translate(-0.001)" fill="#de4132"/>
    <path id="Path_6" data-name="Path 6" d="M9.477,43.959a.044.044,0,0,1-.086.011,2.18,2.18,0,1,0-2.1,2.786H22.964a1.384,1.384,0,0,0,1.388-1.387V44.04H9.477Z" transform="translate(0 -18.442)" fill="#de4132"/>
    <path id="Path_7" data-name="Path 7" d="M32.788,25.008V7.934A1.386,1.386,0,0,0,31.4,6.547H15.224V26.394H31.4a1.386,1.386,0,0,0,1.386-1.386ZM17.376,9.237a.538.538,0,0,1,.538-.538h6.093a.538.538,0,0,1,.538.538v5.736l-1.755-3.5a.56.56,0,0,0-1,0l-.949,1.9L20.1,12.228a.557.557,0,0,0-.469-.257.58.58,0,0,0-.474.257l-1.786,2.79ZM30.1,24.243H17.913a.538.538,0,0,1,0-1.076H30.1a.538.538,0,0,1,0,1.076Zm0-2.894H17.913a.538.538,0,0,1,0-1.076H30.1a.538.538,0,0,1,0,1.076Zm0-2.894H17.913a.538.538,0,0,1,0-1.076H30.1a.538.538,0,0,1,0,1.076Zm0-2.894H26.518a.538.538,0,1,1,0-1.076H30.1a.538.538,0,1,1,0,1.076Zm0-2.894H26.518a.538.538,0,0,1,0-1.076H30.1a.538.538,0,0,1,0,1.076Zm0-2.894H26.518a.538.538,0,0,1,0-1.076H30.1a.538.538,0,0,1,0,1.076Z" transform="translate(-4.672 -1.87)" fill="#de4132"/>
  </g>
</svg>
