<svg width="470" height="470" viewBox="0 0 470 470" fill="none" xmlns="http://www.w3.org/2000/svg">
<path d="M363 0.333374H107C78.7203 0.367248 51.6089 11.6162 31.6124 31.6127C11.6158 51.6093 0.366882 78.7207 0.333008 107V277.667C0.364038 302.247 8.86827 326.065 24.4123 345.107C39.9564 364.148 61.5898 377.249 85.6663 382.2V448.333C85.6658 452.196 86.7137 455.986 88.6984 459.299C90.683 462.612 93.5299 465.325 96.9354 467.147C100.341 468.969 104.177 469.832 108.035 469.645C111.892 469.457 115.627 468.226 118.84 466.083L241.4 384.333H363C391.279 384.299 418.39 373.051 438.387 353.054C458.384 333.057 469.632 305.946 469.666 277.667V107C469.632 78.7207 458.384 51.6093 438.387 31.6127C418.39 11.6162 391.279 0.367248 363 0.333374ZM320.333 256.333H149.666C144.008 256.333 138.582 254.086 134.581 250.085C130.581 246.084 128.333 240.658 128.333 235C128.333 229.342 130.581 223.916 134.581 219.915C138.582 215.914 144.008 213.667 149.666 213.667H320.333C325.991 213.667 331.417 215.914 335.418 219.915C339.419 223.916 341.666 229.342 341.666 235C341.666 240.658 339.419 246.084 335.418 250.085C331.417 254.086 325.991 256.333 320.333 256.333ZM363 171H107C101.342 171 95.9155 168.752 91.9147 164.752C87.914 160.751 85.6663 155.325 85.6663 149.667C85.6663 144.009 87.914 138.583 91.9147 134.582C95.9155 130.581 101.342 128.333 107 128.333H363C368.658 128.333 374.084 130.581 378.085 134.582C382.085 138.583 384.333 144.009 384.333 149.667C384.333 155.325 382.085 160.751 378.085 164.752C374.084 168.752 368.658 171 363 171Z" fill="#8B98B7"/>
</svg>
