<svg width="493" height="353" viewBox="0 0 493 353" fill="none" xmlns="http://www.w3.org/2000/svg">
<path d="M491.229 169.463L452.347 81.4938C450.985 78.374 448.748 75.7162 445.906 73.8425C443.065 71.9688 439.74 70.9597 436.337 70.9375H342.21L347.84 20.0916C348.117 17.6233 347.868 15.1243 347.11 12.759C346.352 10.3937 345.102 8.21578 343.442 6.36844C341.797 4.54586 339.788 3.08772 337.546 2.08779C335.304 1.08787 332.877 0.568303 330.422 0.5625H88.1562C83.4901 0.5625 79.0151 2.41613 75.7156 5.71559C72.4161 9.01506 70.5625 13.4901 70.5625 18.1562C70.5625 22.8224 72.4161 27.2974 75.7156 30.5969C79.0151 33.8964 83.4901 35.75 88.1562 35.75H176.125C180.791 35.75 185.266 37.6036 188.566 40.9031C191.865 44.2026 193.719 48.6776 193.719 53.3438C193.719 58.0099 191.865 62.4849 188.566 65.7844C185.266 69.0839 180.791 70.9375 176.125 70.9375H52.9688C48.3026 70.9375 43.8276 72.7911 40.5281 76.0906C37.2286 79.3901 35.375 83.8651 35.375 88.5312C35.375 93.1974 37.2286 97.6724 40.5281 100.972C43.8276 104.271 48.3026 106.125 52.9688 106.125H228.906C233.572 106.125 238.047 107.979 241.347 111.278C244.646 114.578 246.5 119.053 246.5 123.719C246.5 128.385 244.646 132.86 241.347 136.159C238.047 139.459 233.572 141.312 228.906 141.312H105.75C101.084 141.312 96.6088 143.166 93.3093 146.466C90.0099 149.765 88.1562 154.24 88.1562 158.906C88.1562 163.572 90.0099 168.047 93.3093 171.347C96.6088 174.646 101.084 176.5 105.75 176.5H176.125C180.791 176.5 185.266 178.354 188.566 181.653C191.865 184.953 193.719 189.428 193.719 194.094C193.719 198.76 191.865 203.235 188.566 206.534C185.266 209.834 180.791 211.688 176.125 211.688H35.375C30.7088 211.688 26.2338 213.541 22.9343 216.841C19.6349 220.14 17.7813 224.615 17.7812 229.281C17.7813 233.947 19.6349 238.422 22.9343 241.722C26.2338 245.021 30.7088 246.875 35.375 246.875H70.5625C75.2287 246.875 79.7037 248.729 83.0032 252.028C86.3026 255.328 88.1562 259.803 88.1562 264.469C88.1562 269.135 86.3026 273.61 83.0032 276.909C79.7037 280.209 75.2287 282.062 70.5625 282.062H52.9688C48.3026 282.062 43.8276 283.916 40.5281 287.216C37.2286 290.515 35.375 294.99 35.375 299.656C35.375 304.322 37.2286 308.797 40.5281 312.097C43.8276 315.396 48.3026 317.25 52.9688 317.25H103.111C105.011 324.67 108.627 331.54 113.667 337.307C117.939 342.083 123.173 345.9 129.025 348.508C134.878 351.115 141.216 352.455 147.623 352.438C158.465 352.128 168.974 348.623 177.832 342.363C186.69 336.103 193.502 327.367 197.413 317.25H331.83C333.729 324.67 337.345 331.54 342.386 337.307C346.657 342.083 351.891 345.9 357.744 348.508C363.596 351.115 369.935 352.455 376.342 352.438C387.184 352.128 397.693 348.623 406.551 342.363C415.409 336.103 422.221 327.367 426.132 317.25H461.32C465.669 317.276 469.874 315.691 473.123 312.799C476.372 309.907 478.435 305.915 478.913 301.592L492.461 178.435C492.943 175.388 492.514 172.267 491.229 169.463V169.463ZM147.623 317.25C146.164 317.313 144.71 317.045 143.369 316.466C142.029 315.887 140.836 315.012 139.882 313.907C138.501 312.199 137.49 310.221 136.915 308.101C136.339 305.981 136.211 303.764 136.539 301.592C136.988 296.652 139.121 292.016 142.58 288.461C146.039 284.906 150.615 282.647 155.54 282.062C156.999 281.999 158.454 282.267 159.794 282.846C161.135 283.425 162.327 284.3 163.282 285.405C164.663 287.114 165.673 289.091 166.249 291.211C166.824 293.332 166.952 295.549 166.624 297.721C166.175 302.661 164.042 307.296 160.583 310.851C157.124 314.407 152.549 316.665 147.623 317.25V317.25ZM376.342 317.25C374.883 317.313 373.429 317.045 372.088 316.466C370.747 315.887 369.555 315.012 368.601 313.907C367.22 312.199 366.209 310.221 365.634 308.101C365.058 305.981 364.93 303.764 365.258 301.592C365.707 296.652 367.84 292.016 371.299 288.461C374.758 284.906 379.333 282.647 384.259 282.062C385.718 281.999 387.172 282.267 388.513 282.846C389.854 283.425 391.046 284.3 392 285.405C393.381 287.114 394.392 289.091 394.967 291.211C395.543 293.332 395.671 295.549 395.343 297.721C394.894 302.661 392.761 307.296 389.302 310.851C385.843 314.407 381.268 316.665 376.342 317.25V317.25ZM455.514 194.094H377.749C375.294 194.088 372.868 193.568 370.625 192.568C368.383 191.569 366.375 190.11 364.73 188.288C363.07 186.44 361.819 184.263 361.061 181.897C360.303 179.532 360.054 177.033 360.332 174.565L366.137 121.783C366.656 117.492 368.736 113.542 371.981 110.686C375.226 107.831 379.409 106.27 383.731 106.301H424.725L457.625 179.315L455.514 194.094Z" fill="#8B98B7"/>
<path d="M35.375 176.5C40.0412 176.5 44.5162 174.646 47.8157 171.347C51.1151 168.047 52.9688 163.572 52.9688 158.906C52.9688 154.24 51.1151 149.765 47.8157 146.466C44.5162 143.166 40.0412 141.312 35.375 141.312H17.7812C13.1151 141.312 8.64006 143.166 5.34059 146.466C2.04112 149.765 0.1875 154.24 0.1875 158.906C0.1875 163.572 2.04112 168.047 5.34059 171.347C8.64006 174.646 13.1151 176.5 17.7812 176.5H35.375Z" fill="#8B98B7"/>
</svg>
