<svg width="473" height="423" viewBox="0 0 473 423" fill="none" xmlns="http://www.w3.org/2000/svg">
<path fill-rule="evenodd" clip-rule="evenodd" d="M421.221 241.295C407.011 330.383 329.745 398.558 236.68 398.558C149.671 398.558 76.4662 338.968 55.7005 258.404C54.0494 251.999 47.5085 248.139 41.1017 249.79C34.6969 251.441 30.8368 257.982 32.4879 264.387C55.9191 355.285 138.508 422.528 236.68 422.528C344.254 422.528 433.117 341.795 445.94 237.658L452.255 243.51C457.105 248.005 464.695 247.717 469.191 242.866C473.688 238.014 473.399 230.424 468.547 225.929L443.691 202.889C439.095 198.63 431.992 198.63 427.397 202.889L402.539 225.929C397.688 230.424 397.398 238.014 401.895 242.866C406.392 247.717 413.982 248.005 418.833 243.51L421.221 241.295ZM236.68 67.9496C316.057 67.9496 380.5 132.393 380.5 211.77C380.5 291.147 316.057 355.59 236.68 355.59C157.305 355.59 92.8598 291.147 92.8598 211.77C92.8598 132.393 157.305 67.9496 236.68 67.9496ZM224.695 127.785C211.977 127.785 199.785 132.836 190.796 141.825C181.806 150.815 176.755 163.007 176.755 175.719V175.73C176.755 188.444 181.806 200.636 190.796 209.626C199.785 218.616 211.977 223.665 224.689 223.665H224.695V271.605H198.328C191.714 271.605 186.343 276.976 186.343 283.59C186.343 290.206 191.714 295.575 198.328 295.575H224.695V307.56C224.695 314.176 230.066 319.545 236.68 319.545C243.296 319.545 248.665 314.176 248.665 307.56L248.671 295.575C261.384 295.575 273.577 290.526 282.566 281.536C291.556 272.546 296.605 260.354 296.605 247.641C296.605 247.637 296.605 247.633 296.605 247.629C296.605 234.917 291.556 222.725 282.566 213.735C273.577 204.746 261.384 199.695 248.671 199.695H248.665V151.755H275.032C281.648 151.755 287.017 146.385 287.017 139.77C287.017 133.156 281.648 127.785 275.032 127.785H248.665V115.8C248.665 109.186 243.296 103.815 236.68 103.815C230.066 103.815 224.695 109.186 224.695 115.8V127.785ZM248.665 223.665V271.605H248.671C255.028 271.605 261.122 269.081 265.617 264.586C270.112 260.092 272.635 253.997 272.635 247.641C272.635 247.637 272.635 247.633 272.635 247.629C272.635 241.274 270.112 235.178 265.617 230.685C261.122 226.19 255.028 223.665 248.671 223.665H248.665ZM27.4216 185.704L21.1069 179.851C16.2554 175.355 8.66549 175.644 4.17063 180.496C-0.326149 185.347 -0.0385089 192.935 4.81303 197.432L29.6709 220.47C34.2674 224.731 41.3683 224.731 45.9648 220.47L70.8227 197.432C75.6742 192.935 75.9618 185.347 71.467 180.496C66.9702 175.644 59.3803 175.355 54.5288 179.851L52.1414 182.064C66.3508 92.9762 143.617 24.8035 236.68 24.8035C323.691 24.8035 396.894 84.3931 417.661 164.957C419.313 171.362 425.853 175.222 432.258 173.571C438.665 171.92 442.523 165.379 440.872 158.972C417.441 68.0743 334.854 0.833496 236.68 0.833496C129.108 0.833496 40.2427 81.5646 27.4216 185.704ZM224.695 151.755H224.689C218.334 151.755 212.238 154.28 207.745 158.775C203.25 163.268 200.725 169.364 200.725 175.719V175.73C200.725 182.087 203.25 188.181 207.745 192.676C212.238 197.171 218.334 199.695 224.689 199.695H224.695V151.755Z" fill="#8B98B7"/>
</svg>
