<svg xmlns="http://www.w3.org/2000/svg" width="14.998" height="15.002" viewBox="0 0 14.998 15.002">
  <g id="Layer_92" data-name="Layer 92" transform="translate(-2.013 -2.008)">
    <path id="Path_170" data-name="Path 170" d="M19.555,2.677a2.251,2.251,0,0,0-3.2,0L14.91,4.14l3.182,3.182,1.441-1.441a2.251,2.251,0,0,0,.023-3.2Z" transform="translate(-3.22)" fill="#fff"/>
    <path id="Path_171" data-name="Path 171" d="M10.625,6.27l-6.3,6.3a.863.863,0,0,0-.143.2L2.1,16.97A.747.747,0,0,0,3.084,18l4.21-2.086a.863.863,0,0,0,.2-.143l6.3-6.3Z" transform="translate(0 -1.064)" fill="#fff"/>
    <path id="Path_172" data-name="Path 172" d="M18.5,21.5H11.75a.75.75,0,1,1,0-1.5H18.5a.75.75,0,1,1,0,1.5Z" transform="translate(-2.244 -4.491)" fill="#fff"/>
  </g>
</svg>
