<svg id="enter" xmlns="http://www.w3.org/2000/svg" width="18" height="18" viewBox="0 0 18 18">
  <path id="Path_3" data-name="Path 3" d="M181.034.011C181.016.01,181,0,180.98,0h-8.062a2.253,2.253,0,0,0-2.25,2.25V3a.75.75,0,1,0,1.5,0V2.25a.751.751,0,0,1,.75-.75h3.494l-.229.076A1.508,1.508,0,0,0,175.168,3V14.25h-2.25a.751.751,0,0,1-.75-.75V12a.75.75,0,0,0-1.5,0v1.5a2.253,2.253,0,0,0,2.25,2.25h2.25v.75a1.5,1.5,0,0,0,1.5,1.5,1.573,1.573,0,0,0,.478-.074l4.506-1.5A1.507,1.507,0,0,0,182.668,15V1.5A1.5,1.5,0,0,0,181.034.011Zm0,0" transform="translate(-164.668)" fill="#fff"/>
  <path id="Path_4" data-name="Path 4" d="M8.03,109.883l-3-3a.75.75,0,0,0-1.28.53v2.25h-3a.75.75,0,0,0,0,1.5h3v2.25a.75.75,0,0,0,1.28.53l3-3A.749.749,0,0,0,8.03,109.883Zm0,0" transform="translate(0 -102.913)" fill="#fff"/>
</svg>
