<svg xmlns="http://www.w3.org/2000/svg" width="19.992" height="19.992" viewBox="0 0 19.992 19.992">
  <g id="_29-Tax" data-name="29-Tax" transform="translate(-2 -2)">
    <path id="Path_159" data-name="Path 159" d="M24.714,6.453h3.149L24,2.59V5.739A.714.714,0,0,0,24.714,6.453Z" transform="translate(-6.292 -0.169)" fill="#a5a9b6"/>
    <path id="Path_160" data-name="Path 160" d="M20.138,7.712A2.142,2.142,0,0,1,18,5.57V2H10.142A2.142,2.142,0,0,0,8,4.142V9.283a7.14,7.14,0,0,1,5.712,12.709h7.854a2.142,2.142,0,0,0,2.142-2.142V7.712Zm-4.284,0H11.57a.714.714,0,0,1,0-1.428h4.284a.714.714,0,1,1,0,1.428Zm4.284,10.71H18.71a.714.714,0,0,1,0-1.428h1.428a.714.714,0,0,1,0,1.428Zm0-3.57H18.71a.714.714,0,0,1,0-1.428h1.428a.714.714,0,0,1,0,1.428Zm0-3.57H17.282a.714.714,0,0,1,0-1.428h2.856a.714.714,0,0,1,0,1.428Z" transform="translate(-1.716)" fill="#a5a9b6"/>
    <path id="Path_161" data-name="Path 161" d="M7.712,14a5.712,5.712,0,1,0,5.712,5.712A5.712,5.712,0,0,0,7.712,14ZM6.284,17.57a.714.714,0,1,1-.714.714A.714.714,0,0,1,6.284,17.57ZM9.14,21.854a.714.714,0,1,1,.714-.714A.714.714,0,0,1,9.14,21.854Zm.507-3.063L6.791,21.647a.717.717,0,1,1-1.014-1.014l2.856-2.856a.717.717,0,1,1,1.014,1.014Z" transform="translate(0 -3.432)" fill="#a5a9b6"/>
  </g>
</svg>
