<svg xmlns="http://www.w3.org/2000/svg" width="29.995" height="29.998" viewBox="0 0 29.995 29.998">
  <path id="home" d="M29.189,13.047l0,0L16.95.809a2.761,2.761,0,0,0-3.906,0L.814,13.039.8,13.051A2.76,2.76,0,0,0,2.64,17.756q.042,0,.085,0h.488v9.005A3.236,3.236,0,0,0,6.445,30h4.788a.879.879,0,0,0,.879-.879v-7.06a1.476,1.476,0,0,1,1.475-1.475H16.41a1.476,1.476,0,0,1,1.475,1.475v7.06a.879.879,0,0,0,.879.879h4.788a3.236,3.236,0,0,0,3.232-3.232V17.761h.452a2.762,2.762,0,0,0,1.954-4.713Zm0,0" transform="translate(0 0.001)" fill="#8c98b2"/>
</svg>
