<svg xmlns="http://www.w3.org/2000/svg" width="29.591" height="30.007" viewBox="0 0 29.591 30.007">
  <g id="income" transform="translate(-3.548)">
    <path id="Path_11" data-name="Path 11" d="M186.172,14.847a7.423,7.423,0,1,0-7.423-7.423A7.431,7.431,0,0,0,186.172,14.847ZM185.293,3.06v-.2a.879.879,0,0,1,1.758,0v.2a2.324,2.324,0,0,1,1.833,2.269.879.879,0,0,1-1.758,0,.564.564,0,0,0-.563-.563h-.788a.562.562,0,0,0-.335,1.015l.731.542,1.777,1.315a2.33,2.33,0,0,1,.94,1.85V9.5a2.322,2.322,0,0,1-1.838,2.286v.206a.879.879,0,0,1-1.758,0v-.2a2.321,2.321,0,0,1-1.832-2.255.879.879,0,0,1,.873-.884h.006a.879.879,0,0,1,.879.874.561.561,0,0,0,.566.559l.787,0a.562.562,0,0,0,.559-.567V9.5a.565.565,0,0,0-.228-.448l-.731-.541L184.395,7.2a2.321,2.321,0,0,1,.9-4.135Z" transform="translate(-164.933)" fill="#8c98b2"/>
    <path id="Path_12" data-name="Path 12" d="M9.212,318.811a.819.819,0,0,0-1.119-.3L3.958,320.9a.82.82,0,0,0-.3,1.12l4.226,7.32a.819.819,0,0,0,1.119.3l4.135-2.388a.819.819,0,0,0,.3-1.119Z" transform="translate(0 -299.74)" fill="#8c98b2"/>
    <path id="Path_13" data-name="Path 13" d="M157.848,273.621a1.232,1.232,0,0,0-1.72-.28l-5.147,3.709a3.1,3.1,0,0,1-.37.271,3.189,3.189,0,0,1-1.7.488h-4.211a.879.879,0,1,1,0-1.758h4.5a1.165,1.165,0,0,0,1.164-1.214,1.184,1.184,0,0,0-1.192-1.116h-3.428a5.7,5.7,0,0,0-.759-.672,5.623,5.623,0,0,0-3.349-1.1,6.2,6.2,0,0,0-5.366,3.279l3.6,6.228h6.746a7.572,7.572,0,0,0,3.777-1,15.123,15.123,0,0,0,1.286-.835c1.935-1.39,5.892-4.278,5.895-4.28A1.232,1.232,0,0,0,157.848,273.621Z" transform="translate(-124.941 -256.012)" fill="#8c98b2"/>
  </g>
</svg>
