<svg id="location" xmlns="http://www.w3.org/2000/svg" width="20" height="20" viewBox="0 0 20 20">
  <path id="Path_156" data-name="Path 156" d="M18.294,357.188a.586.586,0,0,0-.564,1.027c.7.383,1.1.809,1.1,1.166,0,.438-.62,1.116-2.36,1.707a20.922,20.922,0,0,1-6.468.906,20.922,20.922,0,0,1-6.468-.906c-1.74-.591-2.36-1.269-2.36-1.707,0-.358.4-.783,1.1-1.166a.586.586,0,1,0-.564-1.027A2.787,2.787,0,0,0,0,359.381c0,.8.547,1.931,3.155,2.816a22.106,22.106,0,0,0,6.845.968,22.106,22.106,0,0,0,6.845-.968c2.607-.886,3.155-2.021,3.155-2.816A2.787,2.787,0,0,0,18.294,357.188Z" transform="translate(0 -343.165)" fill="#a5a9b6"/>
  <path id="Path_157" data-name="Path 157" d="M88.8,344.225a19.038,19.038,0,0,0,8.847,0c1.455-.411,2.193-1.006,2.193-1.769s-.738-1.357-2.193-1.768c-.323-.091-.674-.171-1.048-.24q-.3.526-.638,1.082c.413.062.8.138,1.154.228a2.992,2.992,0,0,1,1.543.7,2.991,2.991,0,0,1-1.543.7,16.179,16.179,0,0,1-3.691.419c-.067,0-.134.008-.2.008s-.135,0-.2-.008a16.179,16.179,0,0,1-3.691-.419,2.992,2.992,0,0,1-1.543-.7,2.992,2.992,0,0,1,1.543-.7c.353-.09.741-.166,1.154-.228q-.333-.557-.638-1.082c-.374.068-.725.148-1.048.24-1.455.411-2.193,1.006-2.193,1.768S87.348,343.814,88.8,344.225Z" transform="translate(-83.227 -327.149)" fill="#a5a9b6"/>
  <path id="Path_158" data-name="Path 158" d="M122.007,15.259a1.475,1.475,0,0,0,1.268-.711c1.907-3.119,4.179-7.231,4.179-9.1a5.447,5.447,0,0,0-10.894,0c0,1.871,2.273,5.982,4.179,9.1A1.475,1.475,0,0,0,122.007,15.259ZM119.818,5.073a2.189,2.189,0,1,1,2.189,2.189A2.192,2.192,0,0,1,119.818,5.073Z" transform="translate(-112.007 0)" fill="#a5a9b6"/>
</svg>
