<svg width="385" height="451" viewBox="0 0 385 451" fill="none" xmlns="http://www.w3.org/2000/svg">
<path d="M369.958 112.64C369.446 112.64 369.446 112.64 368.934 112.64H15.6538C7.4618 112.128 0.805804 118.784 0.293804 126.976C0.293804 127.488 0.293804 127.488 0.293804 128V435.2C-0.218196 443.392 6.43781 450.048 14.6298 450.56C15.1418 450.56 15.1418 450.56 15.6538 450.56H368.934C377.126 451.072 383.782 444.416 384.294 436.224C384.294 435.712 384.294 435.712 384.294 435.2V128C384.806 119.808 378.15 113.152 369.958 112.64ZM269.094 252.416C268.582 252.416 268.582 252.416 268.07 252.416H116.518C108.326 252.928 101.67 246.272 101.158 238.08C101.158 237.568 101.158 237.568 101.158 237.056V198.144C100.646 189.952 107.302 183.296 115.494 182.784C116.006 182.784 116.006 182.784 116.518 182.784H268.07C276.262 182.272 282.918 188.928 283.43 197.12C283.43 197.632 283.43 197.632 283.43 198.144V237.056C283.942 245.248 277.286 251.904 269.094 252.416Z" fill="#8B98B7"/>
<path d="M358.694 56.3199H25.894V87.0399H358.694V56.3199Z" fill="#8B98B7"/>
<path d="M333.094 0H51.4941V30.72H333.094V0Z" fill="#8B98B7"/>
</svg>
