<svg width="470" height="470" viewBox="0 0 470 470" fill="none" xmlns="http://www.w3.org/2000/svg">
<path d="M384.333 0.333374H85.6663C80.5544 0.392232 75.6336 2.28486 71.7997 5.66671C87.0133 11.0193 100.399 20.5736 110.404 33.2223C120.41 45.871 126.626 61.0962 128.333 77.1334C128.659 79.9685 128.659 82.8316 128.333 85.6667V448.333C128.323 452.414 129.483 456.411 131.676 459.852C133.869 463.293 137.003 466.033 140.706 467.747C144.418 469.455 148.542 470.062 152.589 469.495C156.636 468.928 160.434 467.21 163.533 464.547L224.333 412.493L285.133 464.547C288.997 467.852 293.915 469.668 299 469.668C304.085 469.668 309.002 467.852 312.866 464.547L373.666 412.493L434.466 464.547C438.331 467.851 443.248 469.667 448.333 469.667C451.419 469.645 454.469 468.991 457.293 467.747C460.996 466.033 464.13 463.293 466.323 459.852C468.516 456.411 469.676 452.414 469.666 448.333V85.6667C469.666 63.0349 460.676 41.33 444.673 25.3269C428.67 9.32383 406.965 0.333374 384.333 0.333374ZM363 299H235C229.342 299 223.916 296.752 219.915 292.752C215.914 288.751 213.666 283.325 213.666 277.667C213.666 272.009 215.914 266.583 219.915 262.582C223.916 258.581 229.342 256.333 235 256.333H363C368.658 256.333 374.084 258.581 378.085 262.582C382.085 266.583 384.333 272.009 384.333 277.667C384.333 283.325 382.085 288.751 378.085 292.752C374.084 296.752 368.658 299 363 299ZM363 213.667H235C229.342 213.667 223.916 211.419 219.915 207.418C215.914 203.418 213.666 197.991 213.666 192.333C213.666 186.675 215.914 181.249 219.915 177.248C223.916 173.248 229.342 171 235 171H363C368.658 171 374.084 173.248 378.085 177.248C382.085 181.249 384.333 186.675 384.333 192.333C384.333 197.991 382.085 203.418 378.085 207.418C374.084 211.419 368.658 213.667 363 213.667ZM363 128.333H235C229.342 128.333 223.916 126.086 219.915 122.085C215.914 118.084 213.666 112.658 213.666 107C213.666 101.342 215.914 95.9159 219.915 91.9151C223.916 87.9143 229.342 85.6667 235 85.6667H363C368.658 85.6667 374.084 87.9143 378.085 91.9151C382.085 95.9159 384.333 101.342 384.333 107C384.333 112.658 382.085 118.084 378.085 122.085C374.084 126.086 368.658 128.333 363 128.333ZM85.6663 85.6667V256.333H21.6663C16.0084 256.333 10.5822 254.086 6.5814 250.085C2.58062 246.084 0.333008 240.658 0.333008 235V85.6667C0.333008 82.68 0.333008 79.9067 0.333008 77.1334C1.4646 65.8175 7.04507 55.4146 15.8468 48.2132C24.6485 41.0118 35.9504 37.6018 47.2663 38.7334C58.5822 39.865 68.9852 45.4454 76.1866 54.2471C83.388 63.0489 86.7979 74.3508 85.6663 85.6667Z" fill="#8B98B7"/>
</svg>
