<svg xmlns="http://www.w3.org/2000/svg" width="35.999" height="29.995" viewBox="0 0 35.999 29.995">
  <g id="Group_4" data-name="Group 4" transform="translate(-82.999 -761.001)">
    <path id="Subtraction_1" data-name="Subtraction 1" d="M11172.892,4559h-24.437a3.214,3.214,0,0,1-1.944-.682,2.4,2.4,0,0,1-1.011-1.866v-19.214h10.543v9.841a.746.746,0,0,0,.756.75.731.731,0,0,0,.519-.214l3.18-3.1,2.276,2.221a9.507,9.507,0,0,0,12.144,11.314A2.618,2.618,0,0,1,11172.892,4559Zm-23.645-4.5a.749.749,0,0,0,0,1.5h5.25a.749.749,0,1,0,0-1.5Zm0-3a.749.749,0,0,0,0,1.5h5.25a.749.749,0,1,0,0-1.5Zm8.295-6.2V4529h5.912v15.844c-.047.1-.1.2-.144.309l-2.289-2.231a.745.745,0,0,0-1.047,0l-2.431,2.369Zm7.411-2.666v-5.394h10.543v2.929a9.51,9.51,0,0,0-10.541,2.463Zm10.543-6.892h-10.543V4529h10.366a1.677,1.677,0,0,1,1.675,1.675v3.4A1.677,1.677,0,0,1,11175.5,4535.736Zm-26.484,0h-3.512a1.7,1.7,0,0,1-1.5-1.658v-3.4a1.7,1.7,0,0,1,1.676-1.675h10.368v6.729h-7.031Z" transform="translate(-11061 -3768)" fill="#8c98b2"/>
    <path id="Path_14" data-name="Path 14" d="M319.876,304.5h-.006a8,8,0,1,0,.006,0Zm4.477,9.23H319.87a1.231,1.231,0,0,1-1.231-1.231c0-2.057.006-4.372.006-5.414a1.23,1.23,0,0,1,1.225-1.116h.006A1.231,1.231,0,0,1,321.1,307.2v4.068h3.252a1.231,1.231,0,1,1,0,2.462Zm0,0" transform="translate(-208.87 468.506)" fill="#8c98b2"/>
  </g>
</svg>
