<svg xmlns="http://www.w3.org/2000/svg" width="53" height="54" viewBox="0 0 53 54">
  <g id="Group_25" data-name="Group 25" transform="translate(2981 3027.969)">
    <g id="Rectangle_71" data-name="Rectangle 71" transform="translate(-2981 -3027.969)" fill="#df4134" stroke="#ffaea8" stroke-width="2">
      <rect width="53" height="54" rx="6" stroke="none"/>
      <rect x="1" y="1" width="51" height="52" rx="5" fill="none"/>
    </g>
    <g id="Group_85" data-name="Group 85" transform="translate(-11856.999 -2752.969)">
      <path id="Subtraction_2" data-name="Subtraction 2" d="M10.95,25a.925.925,0,0,1-.469-.13L.47,19.094A.917.917,0,0,1,0,18.281V6.722a.919.919,0,0,1,.47-.814L10.481.13a.915.915,0,0,1,.939,0L14.837,2.1,9.362,5.263,3.887,8.424v4.708a.459.459,0,0,0,.235.407l2.236,1.291a.465.465,0,0,0,.235.064.471.471,0,0,0,.469-.471V10.257l10.95-6.322L21.43,5.909a.919.919,0,0,1,.47.814v4.386a7,7,0,0,0-6.522,11.48l-3.958,2.285A.929.929,0,0,1,10.95,25Z" transform="translate(8889.168 -260.502)" fill="#fff"/>
      <g id="exclmation_mark" transform="translate(8901.83 -250.5)">
        <path id="Path_34" data-name="Path 34" d="M8,2a6,6,0,1,0,6,6A6.007,6.007,0,0,0,8,2Zm.426,8.826A.608.608,0,1,1,8.6,10.4.628.628,0,0,1,8.426,10.826ZM8.6,8.6a.6.6,0,1,1-1.2,0v-3a.6.6,0,1,1,1.2,0Z" fill="#fff"/>
      </g>
    </g>
  </g>
</svg>
