<svg width="416" height="512" viewBox="0 0 416 512" fill="none" xmlns="http://www.w3.org/2000/svg">
<path fill-rule="evenodd" clip-rule="evenodd" d="M320 208C320 269.856 269.856 320 208 320C146.144 320 96 269.856 96 208C96 146.144 146.144 96 208 96C269.856 96 320 146.144 320 208ZM266.811 187.795L196.994 251.795C190.877 257.402 181.488 257.402 175.37 251.795L149.189 227.795C142.675 221.824 142.235 211.702 148.206 205.189C154.176 198.675 164.298 198.235 170.811 204.205L186.182 218.294L245.189 164.205C251.702 158.234 261.824 158.675 267.795 165.189C273.766 171.702 273.325 181.824 266.811 187.795Z" fill="#8B98B7"/>
<path fill-rule="evenodd" clip-rule="evenodd" d="M208 0C93.1248 0 0 93.1248 0 208C0 281.638 38.267 346.339 96 383.302V496C96 501.546 98.8712 506.694 103.588 509.611C108.305 512.526 114.195 512.79 119.155 510.31L208 465.888L296.845 510.31C301.805 512.79 307.694 512.526 312.411 509.611C317.128 506.694 320 501.546 320 496V383.302C377.733 346.339 416 281.638 416 208C416 93.1248 322.875 0 208 0V0ZM208 352C287.53 352 352 287.53 352 208C352 128.471 287.53 64 208 64C128.47 64 64 128.471 64 208C64 287.53 128.47 352 208 352Z" fill="#8B98B7"/>
</svg>
