<svg width="342" height="384" viewBox="0 0 342 384" fill="none" xmlns="http://www.w3.org/2000/svg">
<path fill-rule="evenodd" clip-rule="evenodd" d="M0.333008 42.6667C0.333008 19.1025 19.4355 0 42.9997 0H299C322.564 0 341.666 19.1025 341.666 42.6667V341.333C341.666 364.898 322.564 384 299 384H42.9997C19.4355 384 0.333008 364.898 0.333008 341.333V42.6667ZM149.666 106.667C149.666 94.8847 159.217 85.3333 171 85.3333H256.333C268.115 85.3333 277.666 94.8847 277.666 106.667C277.666 118.449 268.115 128 256.333 128H171C159.217 128 149.666 118.449 149.666 106.667ZM171 170.667C159.217 170.667 149.666 180.218 149.666 192C149.666 203.782 159.217 213.333 171 213.333H256.333C268.115 213.333 277.666 203.782 277.666 192C277.666 180.218 268.115 170.667 256.333 170.667H171ZM149.666 277.333C149.666 265.551 159.217 256 171 256H256.333C268.115 256 277.666 265.551 277.666 277.333C277.666 289.116 268.115 298.667 256.333 298.667H171C159.217 298.667 149.666 289.116 149.666 277.333ZM85.6663 85.3333C73.8844 85.3333 64.333 94.8847 64.333 106.667C64.333 118.449 73.8844 128 85.6663 128H107C118.782 128 128.333 118.449 128.333 106.667C128.333 94.8847 118.782 85.3333 107 85.3333H85.6663ZM64.333 192C64.333 180.218 73.8844 170.667 85.6663 170.667H107C118.782 170.667 128.333 180.218 128.333 192C128.333 203.782 118.782 213.333 107 213.333H85.6663C73.8844 213.333 64.333 203.782 64.333 192ZM85.6663 256C73.8844 256 64.333 265.551 64.333 277.333C64.333 289.116 73.8844 298.667 85.6663 298.667H107C118.782 298.667 128.333 289.116 128.333 277.333C128.333 265.551 118.782 256 107 256H85.6663Z" fill="#8B98B7"/>
</svg>
