<svg xmlns="http://www.w3.org/2000/svg" width="24.361" height="30.002" viewBox="0 0 24.361 30.002">
  <path id="report" d="M62.062,19.178h1.366V41.887A1.815,1.815,0,0,0,65.24,43.7H82.307v1.366a.939.939,0,0,1-.938.938H62.062a.939.939,0,0,1-.938-.938V20.116a.939.939,0,0,1,.938-.938ZM65.24,16a.939.939,0,0,0-.938.938V41.887a.939.939,0,0,0,.938.938H84.548a.939.939,0,0,0,.938-.938V21.237H82.061a1.815,1.815,0,0,1-1.813-1.813V16Zm2.622,5.927h8.063a.438.438,0,0,0,0-.875H67.862a.438.438,0,0,0,0,.875Zm0,2.11h4.594a.438.438,0,1,0,0-.875H67.862a.438.438,0,1,0,0,.875Zm13.262-4.612a.939.939,0,0,0,.938.938H85.4a.939.939,0,0,0-.193-.275L81.4,16.275a.939.939,0,0,0-.275-.193v3.343ZM68.175,34.083a.313.313,0,0,0-.313.313v3.926a.313.313,0,0,0,.313.313h1.569a.313.313,0,0,0,.313-.313V34.4a.313.313,0,0,0-.313-.313Zm3.956-1.98a.313.313,0,0,0-.313.313v5.906a.313.313,0,0,0,.313.313H73.7a.313.313,0,0,0,.313-.313V32.416A.313.313,0,0,0,73.7,32.1Zm3.957-1.98a.313.313,0,0,0-.313.313v7.885a.313.313,0,0,0,.313.313h1.569a.313.313,0,0,0,.313-.313V30.436a.313.313,0,0,0-.313-.313Zm3.957-1.98a.313.313,0,0,0-.313.313v9.865a.313.313,0,0,0,.313.313h1.569a.313.313,0,0,0,.313-.313V28.456a.313.313,0,0,0-.313-.313Zm-2.5-3.326.677-.176a12.368,12.368,0,0,1-3.677,3.516,15.962,15.962,0,0,1-6.379,2.292.436.436,0,1,0,.116.865A16.844,16.844,0,0,0,75.01,28.9a13.316,13.316,0,0,0,3.823-3.605l.034.509a.437.437,0,1,0,.872-.055l-.121-1.832c-.022-.327-.362-.442-.672-.362l-1.622.421a.436.436,0,0,0,.219.844Z" transform="translate(-61.124 -16)" fill="#8c98b2" fill-rule="evenodd"/>
</svg>
