<svg width="512" height="491" viewBox="0 0 512 491" fill="none" xmlns="http://www.w3.org/2000/svg">
<path d="M128 213.667C153.778 213.681 179.114 220.366 201.544 233.072C223.974 245.777 242.734 264.071 256 286.173V128.333C256 94.3857 242.514 61.8284 218.51 37.8237C194.505 13.819 161.948 0.333374 128 0.333374C94.0523 0.333374 61.495 13.819 37.4903 37.8237C13.4857 61.8284 0 94.3857 0 128.333L0 286.173C13.2663 264.071 32.0264 245.777 54.4561 233.072C76.8858 220.366 102.222 213.681 128 213.667Z" fill="#8B98B7"/>
<path d="M128 235C102.684 235 77.9366 242.507 56.8871 256.572C35.8376 270.637 19.4315 290.628 9.74348 314.017C0.0554606 337.405 -2.47937 363.142 2.45954 387.972C7.39845 412.801 19.5893 435.609 37.4904 453.51C55.3915 471.411 78.1989 483.602 103.029 488.541C127.858 493.479 153.595 490.945 176.984 481.257C200.372 471.569 220.363 455.162 234.428 434.113C248.493 413.064 256 388.316 256 363C255.962 329.064 242.464 296.529 218.468 272.532C194.471 248.536 161.936 235.038 128 235ZM128 405.667C119.561 405.667 111.312 403.164 104.296 398.476C97.2792 393.788 91.8105 387.124 88.5812 379.328C85.3519 371.532 84.5069 362.953 86.1532 354.676C87.7995 346.4 91.8631 338.797 97.8302 332.83C103.797 326.863 111.4 322.799 119.676 321.153C127.953 319.507 136.532 320.352 144.328 323.581C152.124 326.81 158.788 332.279 163.476 339.296C168.164 346.312 170.667 354.561 170.667 363C170.654 374.312 166.155 385.157 158.156 393.156C150.157 401.155 139.312 405.654 128 405.667Z" fill="#8B98B7"/>
<path d="M490.666 107H277.333V363C277.318 388.778 270.633 414.114 257.927 436.544C245.222 458.973 226.928 477.733 204.826 491H490.666C496.324 491 501.75 488.752 505.751 484.752C509.752 480.751 512 475.325 512 469.667V128.333C512 122.675 509.752 117.249 505.751 113.248C501.75 109.248 496.324 107 490.666 107ZM320 405.667C315.78 405.667 311.656 404.416 308.147 402.071C304.639 399.727 301.905 396.395 300.29 392.497C298.675 388.599 298.253 384.31 299.076 380.171C299.899 376.033 301.931 372.232 304.915 369.248C307.898 366.265 311.699 364.233 315.838 363.41C319.976 362.587 324.265 363.009 328.163 364.624C332.062 366.239 335.393 368.973 337.738 372.481C340.082 375.989 341.333 380.114 341.333 384.333C341.333 389.991 339.085 395.418 335.084 399.418C331.084 403.419 325.657 405.667 320 405.667ZM320 320.333C315.78 320.333 311.656 319.082 308.147 316.738C304.639 314.394 301.905 311.062 300.29 307.164C298.675 303.266 298.253 298.976 299.076 294.838C299.899 290.7 301.931 286.899 304.915 283.915C307.898 280.932 311.699 278.9 315.838 278.077C319.976 277.253 324.265 277.676 328.163 279.291C332.062 280.905 335.393 283.64 337.738 287.148C340.082 290.656 341.333 294.781 341.333 299C341.333 304.658 339.085 310.084 335.084 314.085C331.084 318.086 325.657 320.333 320 320.333ZM320 235C315.78 235 311.656 233.749 308.147 231.405C304.639 229.061 301.905 225.729 300.29 221.831C298.675 217.932 298.253 213.643 299.076 209.505C299.899 205.366 301.931 201.565 304.915 198.582C307.898 195.598 311.699 193.566 315.838 192.743C319.976 191.92 324.265 192.343 328.163 193.957C332.062 195.572 335.393 198.306 337.738 201.814C340.082 205.323 341.333 209.447 341.333 213.667C341.333 219.325 339.085 224.751 335.084 228.752C331.084 232.752 325.657 235 320 235ZM384 448.333C379.78 448.333 375.656 447.082 372.147 444.738C368.639 442.394 365.905 439.062 364.29 435.164C362.675 431.266 362.253 426.976 363.076 422.838C363.899 418.7 365.931 414.899 368.915 411.915C371.898 408.932 375.699 406.9 379.838 406.077C383.976 405.253 388.265 405.676 392.163 407.291C396.062 408.905 399.393 411.64 401.738 415.148C404.082 418.656 405.333 422.781 405.333 427C405.333 432.658 403.085 438.084 399.084 442.085C395.084 446.086 389.657 448.333 384 448.333ZM384 363C379.78 363 375.656 361.749 372.147 359.405C368.639 357.061 365.905 353.729 364.29 349.831C362.675 345.932 362.253 341.643 363.076 337.505C363.899 333.366 365.931 329.565 368.915 326.582C371.898 323.598 375.699 321.566 379.838 320.743C383.976 319.92 388.265 320.343 392.163 321.957C396.062 323.572 399.393 326.306 401.738 329.814C404.082 333.323 405.333 337.447 405.333 341.667C405.333 347.325 403.085 352.751 399.084 356.752C395.084 360.752 389.657 363 384 363ZM384 277.667C379.78 277.667 375.656 276.415 372.147 274.071C368.639 271.727 365.905 268.395 364.29 264.497C362.675 260.599 362.253 256.31 363.076 252.171C363.899 248.033 365.931 244.232 368.915 241.248C371.898 238.265 375.699 236.233 379.838 235.41C383.976 234.587 388.265 235.009 392.163 236.624C396.062 238.239 399.393 240.973 401.738 244.481C404.082 247.989 405.333 252.114 405.333 256.333C405.333 261.991 403.085 267.417 399.084 271.418C395.084 275.419 389.657 277.667 384 277.667ZM384 192.333C379.78 192.333 375.656 191.082 372.147 188.738C368.639 186.394 365.905 183.062 364.29 179.164C362.675 175.266 362.253 170.976 363.076 166.838C363.899 162.7 365.931 158.899 368.915 155.915C371.898 152.932 375.699 150.9 379.838 150.077C383.976 149.253 388.265 149.676 392.163 151.291C396.062 152.905 399.393 155.64 401.738 159.148C404.082 162.656 405.333 166.781 405.333 171C405.333 176.658 403.085 182.084 399.084 186.085C395.084 190.086 389.657 192.333 384 192.333ZM448 405.667C443.78 405.667 439.656 404.416 436.147 402.071C432.639 399.727 429.905 396.395 428.29 392.497C426.675 388.599 426.253 384.31 427.076 380.171C427.899 376.033 429.931 372.232 432.915 369.248C435.898 366.265 439.699 364.233 443.838 363.41C447.976 362.587 452.265 363.009 456.163 364.624C460.062 366.239 463.393 368.973 465.738 372.481C468.082 375.989 469.333 380.114 469.333 384.333C469.333 389.991 467.085 395.418 463.084 399.418C459.084 403.419 453.657 405.667 448 405.667ZM448 320.333C443.78 320.333 439.656 319.082 436.147 316.738C432.639 314.394 429.905 311.062 428.29 307.164C426.675 303.266 426.253 298.976 427.076 294.838C427.899 290.7 429.931 286.899 432.915 283.915C435.898 280.932 439.699 278.9 443.838 278.077C447.976 277.253 452.265 277.676 456.163 279.291C460.062 280.905 463.393 283.64 465.738 287.148C468.082 290.656 469.333 294.781 469.333 299C469.333 304.658 467.085 310.084 463.084 314.085C459.084 318.086 453.657 320.333 448 320.333ZM448 235C443.78 235 439.656 233.749 436.147 231.405C432.639 229.061 429.905 225.729 428.29 221.831C426.675 217.932 426.253 213.643 427.076 209.505C427.899 205.366 429.931 201.565 432.915 198.582C435.898 195.598 439.699 193.566 443.838 192.743C447.976 191.92 452.265 192.343 456.163 193.957C460.062 195.572 463.393 198.306 465.738 201.814C468.082 205.323 469.333 209.447 469.333 213.667C469.333 219.325 467.085 224.751 463.084 228.752C459.084 232.752 453.657 235 448 235Z" fill="#8B98B7"/>
</svg>
