<svg width="462" height="462" viewBox="0 0 462 462" fill="none" xmlns="http://www.w3.org/2000/svg">
<path d="M230.995 0.599976C103.952 0.599976 0.594727 103.957 0.594727 231C0.594727 358.043 103.952 461.4 230.995 461.4C358.037 461.4 461.395 358.037 461.395 231C461.395 103.957 358.042 0.599976 230.995 0.599976ZM385.982 362.502C386.842 353.342 385.506 343.343 383.842 338.402C374.862 311.64 339.022 294.892 313.483 283.675C303.463 279.287 275.744 271.852 272.416 259.247C267.188 239.31 287.038 224.124 295.88 208.426C305.178 191.878 312.94 169.483 314.451 150.764C319.893 83.5747 278.703 44.2685 219.644 51.0729C176.707 56.0137 151.056 88.024 148.281 129.25C145.47 171.26 161.05 202.282 177.608 225.035C184.853 234.983 192.456 241.394 191.294 253.379C189.927 267.567 174.772 271.504 163.933 275.867C151.077 281.027 137.242 288.866 130.699 292.486C108.192 304.928 83.4773 319.899 77.917 340.379C75.8485 348.007 75.1931 355.268 75.6539 362.098C45.7531 326.708 27.7 280.987 27.7 231.015C27.7 118.734 118.718 27.7206 230.995 27.7206C343.281 27.7206 434.289 118.734 434.289 231.015C434.289 281.155 416.088 327.041 385.982 362.502Z" fill="#8B98B7"/>
</svg>
