<svg width="451" height="451" viewBox="0 0 451 451" fill="none" xmlns="http://www.w3.org/2000/svg">
<path fill-rule="evenodd" clip-rule="evenodd" d="M115.287 15.7209V89.0853C115.287 97.7632 122.33 104.806 131.008 104.806C139.686 104.806 146.729 97.7632 146.729 89.0853V15.7209C146.729 7.04298 139.686 0 131.008 0C122.33 0 115.287 7.04298 115.287 15.7209Z" fill="#8B98B7"/>
<path fill-rule="evenodd" clip-rule="evenodd" d="M303.938 15.7209V89.0853C303.938 97.7632 310.981 104.806 319.659 104.806C328.337 104.806 335.38 97.7632 335.38 89.0853V15.7209C335.38 7.04298 328.337 0 319.659 0C310.981 0 303.938 7.04298 303.938 15.7209Z" fill="#8B98B7"/>
<path fill-rule="evenodd" clip-rule="evenodd" d="M450.667 269.541V193.892H0V366.822C0 410.232 35.1939 445.426 78.6047 445.426H262.036C230.217 421.51 209.612 383.444 209.612 340.62C209.612 268.325 268.325 209.612 340.62 209.612C386.735 209.612 427.316 233.487 450.667 269.541ZM167.69 36.6823V89.0853C167.69 109.334 151.256 125.768 131.008 125.768C127.36 125.768 123.839 125.243 120.527 124.237V36.6823H78.6047C35.1939 36.6823 0 71.8762 0 115.287V162.45H450.667V115.287C450.667 71.8762 415.473 36.6823 372.062 36.6823H356.341V89.0853C356.341 109.334 339.907 125.768 319.659 125.768C316.012 125.768 312.49 125.243 309.178 124.237V36.6823H167.69Z" fill="#8B98B7"/>
<path fill-rule="evenodd" clip-rule="evenodd" d="M340.62 230.574C279.874 230.574 230.573 279.875 230.573 340.62C230.573 401.366 279.874 450.667 340.62 450.667C401.365 450.667 450.666 401.366 450.666 340.62C450.666 279.875 401.365 230.574 340.62 230.574ZM287.588 346.489L319.03 377.931C325.171 384.073 335.107 384.073 341.249 377.931L393.652 325.528C399.793 319.407 399.793 309.43 393.652 303.309C387.531 297.168 377.553 297.168 371.433 303.309L330.139 344.582L309.807 324.27C303.686 318.129 293.708 318.129 287.588 324.27C281.446 330.391 281.446 340.369 287.588 346.489V346.489Z" fill="#8B98B7"/>
</svg>
