<svg xmlns="http://www.w3.org/2000/svg" width="53" height="54" viewBox="0 0 53 54">
  <g id="Group_25" data-name="Group 25" transform="translate(2981 3027.969)">
    <g id="Rectangle_71" data-name="Rectangle 71" transform="translate(-2981 -3027.969)" fill="#df4134" stroke="#ffaea8" stroke-width="2">
      <rect width="53" height="54" rx="6" stroke="none"/>
      <rect x="1" y="1" width="51" height="52" rx="5" fill="none"/>
    </g>
    <path id="product" d="M56.975,33.389v2.04a.154.154,0,0,0,.079.136l1.6.922a.157.157,0,0,0,.236-.136V33.627l6.589-3.8,2.077,1.2a.512.512,0,0,1,.262.454v7a.512.512,0,0,1-.262.454l-6.065,3.5a.512.512,0,0,1-.524,0l-6.065-3.5a.512.512,0,0,1-.262-.454V32.141l1.871,1.08a1.372,1.372,0,0,0,.468.167Zm.476-15.808a.512.512,0,0,0-.524,0l-6.065,3.5a.512.512,0,0,0-.262.454v7a.512.512,0,0,0,.262.454l6.065,3.5a.512.512,0,0,0,.524,0l6.065-3.5a.512.512,0,0,0,.262-.454v-7a.512.512,0,0,0-.262-.454l-2.077-1.2-6.589,3.8v2.724a.157.157,0,0,1-.236.136l-1.6-.922a.154.154,0,0,1-.079-.136V22.585l6.589-3.8Zm-7.69,8.881-1.642.948v2.905a.154.154,0,0,0,.079.136l1.6.922a.157.157,0,0,0,.236-.136V29.356a1.368,1.368,0,0,0,.412.365L53.8,31.657v4.991l-1.166.673a.512.512,0,0,1-.524,0l-6.065-3.5a.512.512,0,0,1-.262-.454v-7a.512.512,0,0,1,.262-.454l3.719-2.147Z" transform="translate(-3011.297 -3030.977)" fill="#fff" fill-rule="evenodd"/>
  </g>
</svg>
