<svg xmlns="http://www.w3.org/2000/svg" width="12.186" height="14.998" viewBox="0 0 12.186 14.998">
  <g id="trash_2_" data-name="trash (2)" transform="translate(-48)">
    <path id="Path_173" data-name="Path 173" d="M59.014,1.875H56.436V1.406A1.406,1.406,0,0,0,55.03,0H53.155a1.406,1.406,0,0,0-1.406,1.406v.469H49.172A1.172,1.172,0,0,0,48,3.046v.937a.469.469,0,0,0,.469.469H59.717a.469.469,0,0,0,.469-.469V3.046A1.172,1.172,0,0,0,59.014,1.875Zm-6.327-.469a.469.469,0,0,1,.469-.469H55.03a.469.469,0,0,1,.469.469v.469H52.687Z" fill="#fff"/>
    <path id="Path_174" data-name="Path 174" d="M73.511,184a.146.146,0,0,0-.146.153l.387,8.115a1.4,1.4,0,0,0,1.4,1.339h7.117a1.4,1.4,0,0,0,1.4-1.339l.387-8.115a.146.146,0,0,0-.146-.153Zm7.078,1.172a.469.469,0,1,1,.937,0v6.093a.469.469,0,0,1-.937,0Zm-2.343,0a.469.469,0,1,1,.937,0v6.093a.469.469,0,0,1-.937,0Zm-2.343,0a.469.469,0,1,1,.937,0v6.093a.469.469,0,1,1-.937,0Z" transform="translate(-24.621 -178.61)" fill="#fff"/>
  </g>
</svg>
