<svg xmlns="http://www.w3.org/2000/svg" width="16.686" height="20" viewBox="0 0 16.686 20">
  <g id="user" transform="translate(0 0)">
    <path id="Path_1" data-name="Path 1" d="M91.849,9.634a4.661,4.661,0,0,0,3.406-1.411,4.661,4.661,0,0,0,1.411-3.406,4.662,4.662,0,0,0-1.411-3.406,4.816,4.816,0,0,0-6.812,0,4.661,4.661,0,0,0-1.411,3.406,4.661,4.661,0,0,0,1.411,3.406A4.662,4.662,0,0,0,91.849,9.634Zm0,0" transform="translate(-83.632)" fill="#a5a9b6"/>
    <path id="Path_2" data-name="Path 2" d="M16.645,253.034a11.9,11.9,0,0,0-.162-1.264,9.957,9.957,0,0,0-.311-1.271,6.276,6.276,0,0,0-.522-1.185,4.472,4.472,0,0,0-.788-1.026,3.473,3.473,0,0,0-1.131-.711,3.91,3.91,0,0,0-1.444-.261,1.466,1.466,0,0,0-.783.332c-.235.153-.509.33-.816.526a4.673,4.673,0,0,1-1.055.465,4.1,4.1,0,0,1-2.581,0A4.662,4.662,0,0,1,6,248.174c-.3-.194-.578-.371-.816-.526a1.464,1.464,0,0,0-.783-.332,3.905,3.905,0,0,0-1.444.262,3.47,3.47,0,0,0-1.132.711,4.472,4.472,0,0,0-.787,1.026A6.288,6.288,0,0,0,.513,250.5a9.981,9.981,0,0,0-.311,1.27,11.856,11.856,0,0,0-.162,1.264c-.027.383-.04.78-.04,1.181a3.321,3.321,0,0,0,.986,2.512,3.551,3.551,0,0,0,2.542.927h9.63a3.55,3.55,0,0,0,2.541-.927,3.32,3.32,0,0,0,.986-2.513c0-.4-.014-.8-.04-1.181Zm0,0" transform="translate(0 -237.655)" fill="#a5a9b6"/>
  </g>
</svg>
