<svg width="478" height="512" viewBox="0 0 478 512" fill="none" xmlns="http://www.w3.org/2000/svg">
<path d="M205 460.8C179.4 435.2 179.4 396.8 205 371.2C230.6 345.6 269 345.6 294.6 371.2L313.8 390.4L374.6 323.2C352.2 310.4 333 310.4 310.6 310.4C288.2 307.2 265.8 300.8 265.8 281.6C265.8 262.4 291.4 268.8 310.6 233.6C310.6 233.6 397 0 217.8 0C41.8002 0 128.2 233.6 128.2 233.6C147.4 265.6 173 259.2 173 281.6C173 304 150.6 304 128.2 307.2C93.0002 310.4 61.0002 304 29.0002 361.6C9.80019 396.8 0.200195 512 0.200195 512H256.2L205 460.8Z" fill="#8B98B7"/>
<path d="M374.6 512H441.8C441.8 512 438.6 483.2 435.4 448L374.6 512Z" fill="#8B98B7"/>
<path d="M317 512C307.4 512 301 508.8 294.6 502.4L230.6 438.4C217.8 425.6 217.8 406.4 230.6 393.6C243.4 380.8 262.6 380.8 275.4 393.6L317 435.2L422.6 320C435.4 307.2 454.6 307.2 467.4 316.8C480.2 329.6 480.2 348.8 470.6 361.6L342.6 499.2C333 508.8 326.6 512 317 512Z" fill="#8B98B7"/>
</svg>
