<svg xmlns="http://www.w3.org/2000/svg" width="23.213" height="15.006" viewBox="0 0 23.213 15.006">
  <g id="view" transform="translate(0 -91.866)">
    <circle id="Ellipse_60" data-name="Ellipse 60" cx="3.574" cy="3.574" r="3.574" transform="translate(8.033 95.797)" fill="#fff"/>
    <path id="Path_169" data-name="Path 169" d="M22.858,98.381c-2.747-3.32-6.905-6.515-11.251-6.515S3.1,95.064.357,98.381a1.554,1.554,0,0,0,0,1.98,23.265,23.265,0,0,0,4.07,3.851c4.867,3.543,9.484,3.551,14.362,0a23.264,23.264,0,0,0,4.07-3.851A1.554,1.554,0,0,0,22.858,98.381ZM11.607,94.368a5,5,0,1,1-5,5A5.009,5.009,0,0,1,11.607,94.368Z" fill="#fff"/>
  </g>
</svg>
